<?xml version="1.0" standalone="no"?>
<!DOCTYPE svg PUBLIC "-//W3C//DTD SVG 20010904//EN"
 "http://www.w3.org/TR/2001/REC-SVG-20010904/DTD/svg10.dtd">
<svg version="1.0" xmlns="http://www.w3.org/2000/svg"
 width="260.000000pt" height="260.000000pt" viewBox="0 0 260.000000 260.000000"
 preserveAspectRatio="xMidYMid meet">
<metadata>
Created by potrace 1.11, written by Peter Selinger 2001-2013
</metadata>
<g transform="translate(0.000000,260.000000) scale(0.100000,-0.100000)"
fill="#000000" stroke="none">
<path d="M1140 2336 c-3 -3 -26 -8 -50 -11 -24 -3 -65 -19 -90 -35 -61 -39
-154 -156 -197 -247 -36 -78 -59 -171 -45 -185 10 -10 27 8 35 37 3 11 3 -1 0
-27 -3 -32 -2 -48 6 -48 6 0 11 7 11 15 0 8 5 15 10 15 6 0 10 -9 10 -21 0
-31 22 -18 37 22 l13 34 -5 -42 c-3 -23 -8 -50 -11 -60 -3 -10 1 -7 10 7 16
25 16 25 10 -14 -6 -37 -6 -39 17 -33 19 5 26 1 35 -18 11 -23 10 -23 -25 -19
-30 3 -32 2 -11 -5 22 -7 23 -9 8 -16 -10 -4 -18 -14 -18 -22 0 -9 8 -22 18
-29 16 -13 16 -13 -3 -13 -11 0 -47 11 -80 24 -33 14 -71 25 -85 25 -14 0 -56
20 -95 44 -38 24 -88 56 -110 69 -22 14 -94 53 -160 88 -137 72 -248 137 -253
150 -2 5 -8 7 -13 3 -11 -6 -89 36 -89 48 0 4 -4 8 -10 8 -6 0 -9 -131 -7
-371 l2 -372 95 -33 c53 -19 116 -33 142 -34 97 0 204 72 266 180 16 27 31 47
35 44 7 -7 -29 -70 -67 -114 -35 -42 -107 -92 -158 -110 -20 -8 -35 -17 -32
-21 2 -4 27 -15 54 -24 44 -15 51 -21 60 -53 15 -59 36 -80 93 -96 55 -16 81
-19 136 -17 55 2 29 12 -40 15 -35 2 -82 11 -104 21 l-40 18 40 13 c22 7 54
13 72 13 26 1 31 5 27 19 -3 12 -1 11 6 -3 11 -21 72 -65 90 -65 5 0 10 7 10
15 0 8 -4 15 -10 15 -5 0 -10 8 -10 18 0 10 3 13 8 6 4 -6 15 -13 25 -17 9 -3
17 -15 17 -26 0 -15 17 -28 63 -50 34 -16 78 -40 96 -53 19 -12 31 -16 27 -9
-6 9 -4 12 5 9 8 -3 14 -11 14 -19 0 -8 9 -13 22 -12 27 3 113 -33 113 -47 0
-5 5 -10 11 -10 17 0 59 -48 59 -67 0 -13 3 -13 15 -3 15 12 16 11 19 -12 0
-6 13 -12 28 -12 15 -1 35 -9 45 -17 10 -9 26 -19 37 -23 11 -4 16 -12 12 -22
-7 -18 20 -74 36 -74 6 0 4 8 -5 18 -21 23 -22 39 -3 23 8 -7 25 -9 40 -5 20
5 26 3 24 -7 -2 -10 7 -13 35 -12 29 2 37 -1 37 -15 0 -15 2 -15 10 -2 5 8 10
27 10 42 0 37 -104 137 -192 183 -69 36 -98 65 -98 97 0 12 8 18 23 18 18 1
16 4 -15 20 -37 20 -65 49 -37 38 84 -31 87 -32 129 -18 47 15 59 28 39 41 -9
7 -5 7 14 3 19 -4 27 -2 27 8 0 9 13 13 39 13 50 0 59 9 36 35 -24 26 -16 25
23 -3 39 -30 149 -39 139 -12 -5 13 -3 14 13 5 10 -5 35 -10 54 -10 29 0 37 4
42 24 7 30 -27 73 -67 81 -16 4 -29 11 -29 16 0 5 -7 9 -15 9 -8 0 -15 4 -15
9 0 5 -6 11 -14 14 -11 4 -11 -1 0 -31 16 -46 17 -69 3 -78 -7 -4 -9 0 -5 13
4 11 2 33 -4 49 -9 23 -13 25 -20 14 -8 -13 -10 -12 -10 3 0 26 -19 20 -26 -9
-4 -15 -10 -22 -16 -16 -13 13 7 59 29 65 17 4 17 5 1 6 -23 1 -24 21 -2 21
14 0 14 3 4 15 -24 29 0 28 33 -1 17 -16 33 -32 35 -36 2 -5 13 -8 25 -8 12
-1 33 -7 47 -15 14 -8 36 -14 50 -14 14 0 19 3 13 6 -7 2 -13 22 -13 43 0 21
-6 41 -12 43 -10 4 -10 8 1 15 10 8 8 13 -10 26 -17 12 -19 16 -7 16 9 0 19 8
23 17 6 16 8 16 23 -5 13 -16 32 -24 69 -28 44 -6 52 -4 56 12 4 17 5 17 6 2
1 -14 10 -18 37 -18 28 0 35 -3 31 -15 -4 -8 -2 -17 3 -20 6 -4 10 1 10 9 0 9
5 16 10 16 24 0 7 20 -17 21 -16 0 -37 4 -48 8 -15 6 -10 9 24 15 39 6 43 9
39 31 -3 13 -2 29 2 36 11 16 30 2 30 -22 0 -11 6 -22 14 -25 8 -3 92 7 186
22 146 23 173 25 181 13 6 -10 9 -10 9 -1 0 6 5 12 12 12 16 0 80 -74 68 -78
-18 -6 -11 -26 18 -50 l27 -23 -37 3 c-30 3 -35 1 -26 -10 7 -8 24 -11 45 -9
27 4 33 1 33 -13 0 -10 7 -20 15 -24 11 -4 14 -13 9 -31 -4 -15 -1 -32 6 -40
10 -12 10 -15 -1 -15 -17 -1 4 -14 39 -24 l22 -7 0 175 c0 165 -1 176 -20 186
-11 6 -20 21 -20 34 0 21 -8 25 -93 43 l-93 20 -222 -36 c-187 -30 -222 -39
-222 -53 0 -9 10 -18 23 -21 19 -4 18 -4 -5 -6 -19 -1 -28 4 -28 14 0 8 -4 23
-9 33 -5 9 -23 61 -40 114 -44 142 -101 254 -186 366 -87 117 -170 188 -282
244 -72 36 -91 41 -170 45 -48 3 -90 3 -93 -1z m162 -223 c56 -21 155 -90 171
-118 6 -12 36 -53 65 -91 59 -77 120 -197 150 -294 32 -103 34 -120 18 -120
-8 0 -14 8 -14 18 1 37 -54 197 -94 270 -82 153 -143 218 -257 275 -81 40
-169 48 -239 22 -26 -10 -54 -24 -63 -32 -14 -12 -49 -9 -49 4 0 10 35 34 85
58 61 30 162 34 227 8z m-389 -173 c-3 -10 -11 -24 -19 -31 -10 -8 -10 -3 2
20 18 35 24 40 17 11z m437 0 c0 -11 -7 -20 -15 -20 -8 0 -15 9 -15 20 0 11 7
20 15 20 8 0 15 -9 15 -20z m50 0 c0 -5 -4 -10 -10 -10 -5 0 -10 5 -10 10 0 6
5 10 10 10 6 0 10 -4 10 -10z m33 -27 c-7 -2 -21 -2 -30 0 -10 3 -4 5 12 5 17
0 24 -2 18 -5z m-156 -72 c30 -14 43 -16 47 -8 3 7 4 5 3 -4 -1 -8 10 -29 25
-47 25 -30 27 -30 33 -12 11 35 23 21 18 -20 -4 -26 -2 -40 6 -40 6 0 11 -4
11 -10 0 -19 -16 -10 -34 20 -59 102 -188 151 -274 106 -19 -10 -40 -15 -48
-12 -16 6 -19 36 -4 36 6 0 10 -6 10 -14 0 -11 8 -10 37 5 47 24 116 24 170 0z
m229 -56 c9 -14 14 -28 11 -32 -4 -3 -9 2 -13 11 -3 9 -12 16 -19 16 -7 0 -15
7 -19 15 -9 25 22 17 40 -10z m-436 6 c0 -4 -9 -16 -20 -26 -11 -10 -22 -26
-25 -36 -4 -11 -11 -17 -16 -14 -5 4 -9 1 -9 -6 0 -7 -2 -10 -5 -8 -9 9 8 49
18 42 6 -4 8 0 4 11 -4 10 -3 15 3 11 9 -5 14 6 12 25 0 3 8 7 19 7 10 1 19
-2 19 -6z m385 -21 c3 -6 -1 -7 -9 -4 -18 7 -21 14 -7 14 6 0 13 -4 16 -10z
m-1427 -50 c-7 -10 -14 -18 -15 -16 -6 6 9 36 18 36 5 0 4 -9 -3 -20z m1442
-10 c0 -5 -5 -10 -11 -10 -5 0 -7 5 -4 10 3 6 8 10 11 10 2 0 4 -4 4 -10z
m-462 -72 c9 -11 11 -18 4 -18 -7 0 -12 5 -12 11 0 5 -5 7 -10 4 -16 -10 -1
-25 25 -25 13 0 26 -4 29 -9 5 -8 -3 -8 -76 4 -37 6 -55 24 -20 21 12 -1 17 6
17 24 0 30 18 47 24 22 1 -9 10 -25 19 -34z m449 30 c0 -13 3 -31 7 -40 5 -11
4 -18 -2 -18 -6 0 -14 9 -17 20 -3 11 -14 27 -23 37 -16 16 -16 16 6 11 12 -3
22 -2 22 3 0 5 2 9 4 9 2 0 4 -10 3 -22z m-222 -74 c18 -7 80 -93 72 -101 -9
-8 -27 7 -27 22 0 7 -14 25 -30 38 -24 21 -37 25 -68 21 -35 -5 -36 -5 -18 10
21 17 44 20 71 10z m1059 -30 c4 -10 1 -14 -6 -12 -15 5 -23 28 -10 28 5 0 13
-7 16 -16z m-621 -14 c4 -15 0 -20 -14 -20 -10 0 -19 5 -19 10 0 6 5 10 11 10
5 0 7 5 4 10 -3 6 -2 10 3 10 5 0 12 -9 15 -20z m-63 -10 c0 -5 -7 -7 -15 -4
-8 4 -15 8 -15 10 0 2 7 4 15 4 8 0 15 -4 15 -10z m-465 -9 c3 -5 1 -12 -5
-16 -5 -3 -10 1 -10 9 0 18 6 21 15 7z m104 -105 c0 -21 0 -21 -9 0 -5 12 -13
25 -19 29 -6 3 -11 11 -11 17 0 6 9 3 20 -7 11 -10 20 -28 19 -39z m78 0 c-4
-11 11 -17 66 -26 89 -14 101 -18 60 -19 -18 -1 -33 -6 -33 -13 0 -6 -7 -4
-18 5 -25 23 -72 22 -72 0 0 -10 -5 -25 -11 -33 -8 -12 -10 -10 -8 10 2 43 0
50 -23 60 l-23 9 23 0 c13 1 20 5 17 11 -3 6 1 10 10 10 11 0 15 -5 12 -14z
m297 -39 c7 -6 6 -7 -4 -4 -8 2 -16 12 -17 23 -2 13 -1 15 4 4 3 -8 11 -19 17
-23z m-186 -80 c9 -20 -6 -26 -21 -9 -16 18 -16 19 0 17 10 0 19 -4 21 -8z
m42 -11 c0 -2 -7 -7 -16 -10 -8 -3 -12 -2 -9 4 6 10 25 14 25 6z m-866 -80
c-75 -65 -175 -91 -191 -50 -9 24 3 27 37 9 31 -16 32 -16 103 28 40 24 74 42
76 41 2 -2 -10 -14 -25 -28z m923 2 c-3 -8 -6 -5 -6 6 -1 11 2 17 5 13 3 -3 4
-12 1 -19z m7 -42 c17 -17 17 -19 2 -13 -10 4 -21 7 -26 7 -4 0 -10 6 -13 13
-8 20 15 16 37 -7z"/>
<path d="M1610 2165 c19 -19 36 -35 39 -35 3 0 -10 16 -29 35 -19 19 -36 35
-39 35 -3 0 10 -16 29 -35z"/>
<path d="M18 2123 c12 -8 22 -21 22 -29 0 -7 9 -18 19 -24 26 -13 40 -13 21 1
-12 9 -11 10 8 6 12 -3 20 -1 16 4 -3 5 -10 9 -16 9 -6 0 -26 11 -44 25 -18
14 -36 25 -41 24 -4 0 2 -7 15 -16z"/>
<path d="M1665 2100 c10 -11 20 -20 23 -20 3 0 -3 9 -13 20 -10 11 -20 20 -23
20 -3 0 3 -9 13 -20z"/>
<path d="M1690 2066 c0 -2 8 -10 18 -17 15 -13 16 -12 3 4 -13 16 -21 21 -21
13z"/>
<path d="M170 2033 c0 -5 18 -16 40 -25 52 -21 52 -14 0 12 -22 11 -40 17 -40
13z"/>
<path d="M1720 2026 c0 -2 8 -10 18 -17 15 -13 16 -12 3 4 -13 16 -21 21 -21
13z"/>
<path d="M2360 1435 c0 -8 7 -15 15 -15 8 0 15 4 15 9 0 5 -7 11 -15 15 -9 3
-15 0 -15 -9z"/>
<path d="M2004 1384 c3 -9 6 -19 6 -23 0 -4 12 -6 28 -5 15 1 35 3 45 3 33 2
18 28 -20 35 -58 9 -66 8 -59 -10z"/>
<path d="M1742 1321 c1 -35 5 -64 9 -67 4 -2 3 -19 -2 -37 -5 -17 -9 -43 -9
-57 0 -22 5 -25 37 -28 35 -2 36 -1 18 13 -20 14 -20 14 0 16 26 2 27 2 48 -6
15 -7 17 2 17 96 0 129 8 126 11 -4 l2 -98 51 3 c34 2 50 7 49 16 -2 6 6 12
17 12 11 0 20 -4 20 -10 0 -5 -6 -10 -12 -10 -9 0 -8 -4 2 -10 18 -11 100 -13
117 -2 6 4 9 19 6 35 -4 22 -10 27 -37 27 -17 0 -38 5 -46 10 -11 7 1 10 39
10 95 0 241 30 241 49 0 4 -6 15 -12 24 -10 13 -33 17 -110 18 -54 1 -117 5
-140 9 -24 5 -45 7 -49 5 -3 -2 -3 -27 1 -55 5 -40 3 -53 -7 -57 -22 -9 -31 8
-35 65 -4 46 -8 55 -32 67 -15 8 -42 14 -59 13 -18 -1 -56 2 -85 7 l-53 8 3
-62z m448 -36 c0 -8 -2 -15 -4 -15 -2 0 -6 7 -10 15 -3 8 -1 15 4 15 6 0 10
-7 10 -15z m110 5 c0 -5 -4 -10 -9 -10 -6 0 -13 5 -16 10 -3 6 1 10 9 10 9 0
16 -4 16 -10z m-295 -90 c3 -5 -1 -10 -9 -10 -8 0 -18 5 -21 10 -3 6 1 10 9
10 8 0 18 -4 21 -10z"/>
<path d="M10 1300 c8 -5 20 -10 25 -10 6 0 3 5 -5 10 -8 5 -19 10 -25 10 -6 0
-3 -5 5 -10z"/>
<path d="M196 1237 c4 -10 -21 -18 -96 -31 l-100 -18 0 -64 c0 -63 0 -64 28
-64 41 1 361 55 368 63 4 4 3 17 -3 29 -7 16 -32 30 -83 48 -40 14 -75 31 -77
38 -3 6 -14 12 -24 12 -11 0 -16 -5 -13 -13z"/>
<path d="M2132 1188 c2 -19 10 -24 40 -26 31 -3 37 0 32 12 -4 11 0 16 12 17
33 1 -16 17 -54 18 -29 1 -33 -2 -30 -21z"/>
<path d="M2544 1159 c-3 -5 2 -9 11 -9 9 0 14 -4 11 -9 -3 -5 1 -12 10 -15 23
-9 24 -8 24 13 0 20 -46 36 -56 20z"/>
<path d="M2553 1106 c9 -7 17 -21 17 -30 0 -10 5 -14 11 -10 7 4 9 0 5 -14 -4
-11 -2 -23 4 -27 6 -4 10 6 10 25 0 31 -31 69 -55 69 -5 0 -2 -6 8 -13z"/>
<path d="M969 940 c13 -11 28 -20 35 -20 6 0 0 9 -14 20 -33 26 -52 25 -21 0z"/>
<path d="M2425 759 c-189 -37 -555 -105 -935 -174 -162 -30 -369 -68 -460 -85
-305 -58 -336 -61 -405 -45 -34 8 -189 56 -343 108 l-282 95 0 -63 0 -63 329
-110 328 -110 919 184 c506 101 943 189 972 195 l52 10 0 45 c0 29 -4 44 -12
43 -7 0 -80 -14 -163 -30z"/>
</g>
</svg>
